<svg width="335" height="400" viewBox="0 0 335 400" fill="none" xmlns="http://www.w3.org/2000/svg">
<g clip-path="url(#clip0_12_3)">
<rect width="335" height="400" rx="50" fill="#080808"/>
<path d="M324.173 147.429H10.5405C7.74596 147.426 5.0668 146.288 3.09077 144.265C1.11473 142.242 0.00318608 139.5 -4.071e-05 136.639V10.7904C0.00318608 7.92961 1.11473 5.18695 3.09077 3.16407C5.0668 1.1412 7.74596 0.00330328 10.5405 0H324.173C326.967 0.00330328 329.646 1.1412 331.622 3.16407C333.598 5.18695 334.71 7.92961 334.713 10.7904V136.639C334.71 139.5 333.598 142.242 331.622 144.265C329.646 146.288 326.967 147.426 324.173 147.429Z" fill="#141313"/>
<path d="M251.026 140.547H60.3248C46.1139 140.531 32.4897 134.745 22.4412 124.458C12.3926 114.171 6.74026 100.224 6.72423 85.6764V61.759C6.74025 47.2113 12.3926 33.2641 22.4411 22.9772C32.4897 12.6904 46.1139 6.90401 60.3248 6.88751H274.39C288.601 6.90401 302.225 12.6904 312.274 22.9772C322.322 33.2641 327.975 47.2113 327.991 61.759C327.967 82.6478 319.851 102.674 305.423 117.445C290.994 132.215 271.432 140.524 251.026 140.547Z" fill="#0F0E0E"/>
<path d="M201.833 42.9138H75.777C75.0561 42.9138 74.3646 42.6206 73.8548 42.0988C73.345 41.5769 73.0586 40.869 73.0586 40.131C73.0586 39.3929 73.345 38.6851 73.8548 38.1632C74.3646 37.6413 75.0561 37.3481 75.777 37.3481H201.833C202.554 37.3481 203.246 37.6413 203.755 38.1632C204.265 38.6851 204.552 39.3929 204.552 40.131C204.552 40.869 204.265 41.5769 203.755 42.0988C203.246 42.6206 202.554 42.9138 201.833 42.9138Z" fill="#3F3D56"/>
<path d="M265.645 72.6049H75.777C75.0561 72.6049 74.3646 72.3117 73.8548 71.7898C73.345 71.2679 73.0586 70.5601 73.0586 69.822C73.0586 69.084 73.345 68.3761 73.8548 67.8543C74.3646 67.3324 75.0561 67.0392 75.777 67.0392H265.645C266.366 67.0392 267.057 67.3324 267.567 67.8543C268.077 68.3761 268.363 69.084 268.363 69.822C268.363 70.5601 268.077 71.2679 267.567 71.7898C267.057 72.3117 266.366 72.6049 265.645 72.6049Z" fill="#3F3D56"/>
<path d="M265.645 102.296H75.777C75.0561 102.296 74.3646 102.003 73.8548 101.481C73.345 100.959 73.0586 100.251 73.0586 99.5132C73.0586 98.7751 73.345 98.0673 73.8548 97.5454C74.3646 97.0235 75.0561 96.7303 75.777 96.7303H265.645C266.366 96.7303 267.057 97.0235 267.567 97.5454C268.077 98.0673 268.363 98.7751 268.363 99.5132C268.363 100.251 268.077 100.959 267.567 101.481C267.057 102.003 266.366 102.296 265.645 102.296Z" fill="#E6E6E6"/>
<path d="M265.645 102.296H75.777C75.0561 102.296 74.3646 102.003 73.8548 101.481C73.345 100.959 73.0586 100.251 73.0586 99.5132C73.0586 98.7751 73.345 98.0673 73.8548 97.5454C74.3646 97.0235 75.0561 96.7303 75.777 96.7303H265.645C266.366 96.7303 267.057 97.0235 267.567 97.5454C268.077 98.0673 268.363 98.7751 268.363 99.5132C268.363 100.251 268.077 100.959 267.567 101.481C267.057 102.003 266.366 102.296 265.645 102.296Z" fill="#3F3D56"/>
<path d="M188.531 76.0127C188.561 76.851 188.771 77.6722 189.144 78.4187C189.518 79.1651 190.047 79.8186 190.695 80.333C191.342 80.8475 192.091 81.2104 192.89 81.3962C193.689 81.5821 194.518 81.5863 195.319 81.4086L205.686 98.8188L210.098 89.2341L199.577 74.1705C199.197 72.8132 198.343 71.6459 197.177 70.89C196.012 70.134 194.617 69.8419 193.255 70.069C191.893 70.296 190.66 71.0265 189.79 72.122C188.919 73.2175 188.471 74.6018 188.531 76.0127Z" fill="#FFB6B6"/>
<path d="M266.328 125.909L230.602 106.071L219.333 95.2479C219.333 95.2479 214.434 93.9052 216.237 92.2745C218.04 90.6439 212.902 89.0713 212.902 89.0713L206.852 83.2611L198.256 89.4876L200.744 93.4354C200.744 93.4354 200.573 99.9709 204.07 98.7135C207.568 97.4562 206.694 102.876 206.694 102.876L227.569 136.002L266.328 125.909Z" fill="#3F3D56"/>
<path d="M160.868 107.219C180.14 107.219 195.764 91.2247 195.764 71.4952C195.764 51.7657 180.14 35.7718 160.868 35.7718C141.595 35.7718 125.971 51.7657 125.971 71.4952C125.971 91.2247 141.595 107.219 160.868 107.219Z" fill="#E18141"/>
<path d="M266.439 386.111H259.183L255.73 357.461H266.439V386.111Z" fill="#FFB6B6"/>
<path d="M270.269 398.981H265.065L264.136 393.952L261.758 398.981H247.957C247.295 398.981 246.651 398.764 246.118 398.363C245.585 397.962 245.192 397.396 244.995 396.75C244.798 396.103 244.808 395.409 245.024 394.769C245.24 394.129 245.65 393.576 246.194 393.191L257.215 385.4V380.315L268.807 381.024L270.269 398.981Z" fill="#2F2E41"/>
<path d="M208.407 386.111H201.151L197.698 357.461H208.407V386.111Z" fill="#FFB6B6"/>
<path d="M212.236 398.981H207.033L206.104 393.952L203.725 398.981H189.925C189.263 398.981 188.619 398.764 188.086 398.363C187.553 397.962 187.16 397.396 186.963 396.75C186.766 396.103 186.776 395.409 186.992 394.769C187.207 394.129 187.617 393.576 188.162 393.191L199.183 385.4V380.315L210.775 381.024L212.236 398.981Z" fill="#2F2E41"/>
<path d="M258.74 169.432H222.118V212.114H258.74V169.432Z" fill="#FFB6B6"/>
<path d="M222.963 190.484L216.765 197.983L206.06 221.054L179.086 286.754L173.382 300.648L177.989 325.211C177.989 325.211 178.734 342.516 178.734 345.349C178.734 351.116 183.447 354.312 183.447 354.312L186.904 372.745L220.427 371.303C220.427 371.303 219.258 350.985 212.236 345.86C205.215 340.734 201.987 314.023 201.987 314.023L198.172 302.172L235.358 257.048L235.598 272.821L235.714 280.456C235.714 280.456 230.269 330.112 236.616 339.749C242.964 349.386 236.746 348.252 236.746 348.252L237.048 368.131L276.769 368.42L268.006 311.187C268.006 311.187 263.557 307.591 265.937 303.975C268.318 300.36 263.63 295.932 263.63 295.932L265.733 251.253C265.733 251.253 263.404 243.535 266.143 242.532C268.881 241.529 266.502 234.892 266.502 234.892L266.909 226.245L258.74 199.425L222.963 190.484Z" fill="#2F2E41"/>
<path d="M259.303 169.432L263.247 157.32L266.064 153.283L267.191 141.747C267.191 110.601 260.405 115.788 260.405 115.788L256.486 104.833L238.457 104.257L226.907 115.504L217.329 118.964L213.578 138.915L220.427 160.204L222.118 171.739C218.893 177.833 219.166 174.951 221.836 179.526L253.669 188.466C264.938 192.503 264.938 182.121 262.678 179.526C260.418 176.93 259.303 169.432 259.303 169.432Z" fill="#3F3D56"/>
<path d="M245.142 100.385C254.373 100.385 261.856 92.7244 261.856 83.2748C261.856 73.8251 254.373 66.1647 245.142 66.1647C235.912 66.1647 228.429 73.8251 228.429 83.2748C228.429 92.7244 235.912 100.385 245.142 100.385Z" fill="#FFB6B6"/>
<path d="M267.456 106.114C267.613 106.386 267.709 106.691 267.735 107.006C267.762 107.321 267.718 107.638 267.608 107.933C267.498 108.229 267.325 108.495 267.1 108.712C266.876 108.93 266.607 109.092 266.312 109.188C264.07 109.949 262.689 112.17 261.078 113.946C259.472 115.717 256.886 117.188 254.835 115.982C252.79 114.783 252.649 111.72 250.937 110.059C249.269 108.444 246.497 108.64 244.536 109.869L244.477 109.906C244.139 110.131 243.743 110.251 243.339 110.249C242.935 110.247 242.541 110.124 242.204 109.895C241.868 109.666 241.604 109.341 241.446 108.96C241.288 108.58 241.243 108.16 241.316 107.753C242.003 104.013 242.689 100.273 243.375 96.5336C241.572 100.981 238.954 105.033 235.662 108.473C234.756 109.544 233.607 110.372 232.316 110.884C231.144 111.264 230.005 110.024 228.867 110.249C231.696 107.717 241.206 91.4868 239.505 80.6377C237.505 80.8684 235.504 81.0991 233.504 81.3298C233.288 80.3608 232.825 79.4675 232.163 78.7401C232.244 79.6832 232.127 80.633 231.82 81.5259C230.986 81.624 230.146 81.7163 229.313 81.8143C228.152 81.947 226.89 82.0623 225.893 81.4394C224.23 80.4012 224.18 77.9442 224.653 76.0062C226.039 70.3711 230.242 65.6588 235.386 63.1903C240.53 60.7274 242.051 66.2125 247.471 64.4592C258.176 60.9985 266.38 66.9163 269.27 77.898C271.699 87.1091 269.935 96.8854 267.456 106.114Z" fill="#2F2E41"/>
<path d="M313.728 399.353H293.262L293.174 399.189C292.912 398.704 292.66 398.189 292.424 397.66C290.315 393.04 289.424 387.756 288.638 383.093L288.046 379.579C287.975 379.154 288.029 378.716 288.201 378.322C288.374 377.928 288.658 377.596 289.016 377.368C289.374 377.14 289.791 377.027 290.213 377.042C290.634 377.058 291.042 377.202 291.383 377.457C294.493 379.774 297.604 382.088 300.717 384.401C301.896 385.278 303.242 386.294 304.531 387.392C304.655 386.774 304.785 386.154 304.915 385.542C305.005 385.12 305.216 384.735 305.521 384.436C305.825 384.137 306.21 383.938 306.626 383.864C307.042 383.791 307.47 383.846 307.856 384.023C308.241 384.199 308.566 384.49 308.789 384.857L311.183 388.795C312.93 391.671 314.471 394.505 314.157 397.562C314.158 397.599 314.156 397.636 314.149 397.673C314.086 398.175 313.969 398.668 313.801 399.144L313.728 399.353Z" fill="#3F3D56"/>
<path d="M334.27 399.806L139.791 400C139.596 399.999 139.411 399.919 139.274 399.779C139.137 399.638 139.06 399.447 139.06 399.248C139.06 399.05 139.137 398.859 139.274 398.718C139.411 398.577 139.596 398.498 139.791 398.497L334.27 398.303C334.464 398.304 334.649 398.383 334.786 398.524C334.923 398.665 335 398.856 335 399.054C335 399.253 334.923 399.444 334.786 399.585C334.649 399.725 334.464 399.805 334.27 399.806Z" fill="#3F3D56"/>
<path d="M157.695 119.576L136.304 101.083C135.572 100.449 135.117 99.5447 135.036 98.5675C134.956 97.5903 135.257 96.6203 135.874 95.8704L139.812 91.0976C140.43 90.3491 141.314 89.8824 142.269 89.8C143.223 89.7176 144.171 90.0263 144.903 90.6582L166.295 109.152C167.026 109.785 167.482 110.69 167.563 111.667C167.643 112.644 167.342 113.614 166.724 114.364L162.787 119.137C162.168 119.885 161.285 120.352 160.33 120.434C159.376 120.517 158.428 120.208 157.695 119.576Z" fill="#3F3D56"/>
<path d="M137.426 96.2551C137.093 96.6593 136.931 97.182 136.974 97.7086C137.018 98.2352 137.263 98.7226 137.657 99.0641L159.049 117.558C159.444 117.898 159.955 118.064 160.469 118.02C160.983 117.976 161.46 117.724 161.793 117.321L165.73 112.548C166.063 112.144 166.225 111.621 166.182 111.095C166.139 110.568 165.893 110.081 165.499 109.739L144.107 91.2456C143.712 90.9051 143.202 90.7388 142.687 90.7832C142.173 90.8276 141.697 91.0791 141.363 91.4824L137.426 96.2551Z" fill="white"/>
<path d="M149.984 103.444C149.91 103.551 149.813 103.638 149.7 103.699C149.587 103.76 149.462 103.793 149.334 103.796L145.973 103.875C145.865 103.878 145.758 103.859 145.657 103.819C145.556 103.779 145.464 103.719 145.386 103.643C145.308 103.566 145.245 103.475 145.202 103.374C145.158 103.273 145.134 103.164 145.132 103.053C145.129 102.943 145.148 102.833 145.187 102.729C145.226 102.626 145.285 102.532 145.359 102.452C145.434 102.372 145.523 102.308 145.622 102.263C145.721 102.219 145.827 102.195 145.935 102.192L148.134 102.14L145.969 96.2909C145.892 96.0822 145.899 95.8509 145.989 95.6477C146.079 95.4445 146.243 95.2861 146.447 95.2071C146.651 95.128 146.877 95.1349 147.075 95.2262C147.274 95.3175 147.429 95.4858 147.507 95.6941L150.084 102.656C150.131 102.782 150.148 102.918 150.132 103.052C150.117 103.185 150.071 103.313 149.998 103.425L149.984 103.444Z" fill="#F9A826"/>
<path d="M150.416 104.914C151.226 105.036 152.001 105.339 152.685 105.8C153.369 106.262 153.946 106.871 154.376 107.586C154.805 108.3 155.076 109.103 155.169 109.936C155.263 110.769 155.177 111.613 154.917 112.409L170.696 124.852L160.909 128.3L147.426 115.955C146.149 115.42 145.108 114.424 144.501 113.156C143.894 111.888 143.762 110.436 144.13 109.075C144.499 107.714 145.342 106.539 146.501 105.772C147.659 105.005 149.052 104.7 150.416 104.914Z" fill="#FFB6B6"/>
<path d="M232.564 111.067L192.165 136.495C192.165 136.495 175.877 130.325 179.06 127.469C182.243 124.613 172.109 122.682 172.109 122.682L160.914 114.972L154.418 122.7C154.418 122.7 155.602 135.254 157.616 133.08C159.63 130.907 162.64 136.845 162.64 136.845C162.64 136.845 163.53 143.475 169.263 141.806C174.996 140.138 190.38 157.627 190.38 157.627L240.099 138.644L232.564 111.067Z" fill="#3F3D56"/>
<path d="M159.64 85.8254C159.172 85.8254 158.71 85.7137 158.291 85.4992C157.872 85.2848 157.508 84.9734 157.227 84.5898L149.828 74.4904C149.59 74.1659 149.418 73.7967 149.319 73.4038C149.221 73.011 149.199 72.6021 149.255 72.2006C149.311 71.7991 149.444 71.4129 149.646 71.0639C149.848 70.715 150.115 70.4101 150.432 70.1668C151.072 69.6754 151.876 69.4644 152.668 69.5802C153.061 69.6376 153.438 69.7735 153.779 69.9801C154.12 70.1868 154.417 70.4601 154.655 70.7846L159.496 77.3913L171.929 58.3004C172.372 57.6189 173.063 57.1458 173.847 56.9852C174.632 56.8245 175.446 56.9895 176.112 57.4439C176.778 57.8982 177.24 58.6047 177.397 59.4079C177.554 60.2111 177.393 61.0452 176.949 61.7267L162.151 84.45C161.883 84.861 161.523 85.2003 161.101 85.4394C160.679 85.6785 160.207 85.8106 159.724 85.8244C159.696 85.8249 159.668 85.8254 159.64 85.8254Z" fill="white"/>
</g>
<defs>
<clipPath id="clip0_12_3">
<rect width="335" height="400" rx="50" fill="white"/>
</clipPath>
</defs>
</svg>
