<svg width="219" height="213" viewBox="0 0 219 213" fill="none" xmlns="http://www.w3.org/2000/svg">
<g clip-path="url(#clip0_12_3)">
<rect width="219" height="213" rx="50" fill="#080808"/>
<path d="M211.922 78.5061H6.89064C5.06376 78.5044 3.31231 77.8985 2.02052 76.8213C0.728721 75.7441 0.00206749 74.2836 -4.19617e-05 72.7603V5.74588C0.00206749 4.22252 0.728721 2.76205 2.02052 1.68487C3.31231 0.607689 5.06376 0.00175899 6.89064 0H211.922C213.749 0.00175899 215.5 0.607689 216.792 1.68487C218.084 2.76205 218.81 4.22252 218.812 5.74588V72.7603C218.81 74.2836 218.084 75.7441 216.792 76.8213C215.5 77.8984 213.749 78.5044 211.922 78.5061Z" fill="#141313"/>
<path d="M164.104 74.8415H39.4362C30.1461 74.8328 21.2396 71.7516 14.6705 66.2739C8.10142 60.7962 4.40632 53.3693 4.39584 45.6227V32.8867C4.40631 25.14 8.1014 17.7131 14.6705 12.2354C21.2395 6.75765 30.1461 3.67639 39.4362 3.6676H179.377C188.667 3.67639 197.574 6.75765 204.143 12.2354C210.712 17.7131 214.407 25.14 214.418 32.8867C214.403 44.0099 209.097 54.674 199.664 62.5393C190.232 70.4047 177.443 74.8289 164.104 74.8415Z" fill="#0F0E0E"/>
<path d="M131.945 22.8516H49.5378C49.0665 22.8516 48.6145 22.6955 48.2812 22.4176C47.9479 22.1397 47.7607 21.7628 47.7607 21.3697C47.7607 20.9767 47.9479 20.5998 48.2812 20.3219C48.6145 20.044 49.0665 19.8879 49.5378 19.8879H131.945C132.416 19.8879 132.868 20.044 133.201 20.3219C133.535 20.5998 133.722 20.9767 133.722 21.3697C133.722 21.7628 133.535 22.1397 133.201 22.4176C132.868 22.6955 132.416 22.8516 131.945 22.8516Z" fill="#3F3D56"/>
<path d="M173.66 38.6621H49.5378C49.0665 38.6621 48.6145 38.506 48.2812 38.2281C47.9479 37.9502 47.7607 37.5732 47.7607 37.1802C47.7607 36.7872 47.9479 36.4103 48.2812 36.1324C48.6145 35.8545 49.0665 35.6984 49.5378 35.6984H173.66C174.132 35.6984 174.584 35.8545 174.917 36.1324C175.25 36.4103 175.438 36.7872 175.438 37.1802C175.438 37.5732 175.25 37.9502 174.917 38.2281C174.584 38.506 174.132 38.6621 173.66 38.6621Z" fill="#3F3D56"/>
<path d="M173.66 54.4726H49.5378C49.0665 54.4726 48.6145 54.3165 48.2812 54.0386C47.9479 53.7607 47.7607 53.3838 47.7607 52.9908C47.7607 52.5978 47.9479 52.2208 48.2812 51.9429C48.6145 51.665 49.0665 51.5089 49.5378 51.5089H173.66C174.132 51.5089 174.584 51.665 174.917 51.9429C175.25 52.2208 175.438 52.5978 175.438 52.9908C175.438 53.3838 175.25 53.7607 174.917 54.0386C174.584 54.3165 174.132 54.4726 173.66 54.4726Z" fill="#E6E6E6"/>
<path d="M173.66 54.4726H49.5378C49.0665 54.4726 48.6145 54.3165 48.2812 54.0386C47.9479 53.7607 47.7607 53.3838 47.7607 52.9908C47.7607 52.5978 47.9479 52.2208 48.2812 51.9429C48.6145 51.665 49.0665 51.5089 49.5378 51.5089H173.66C174.132 51.5089 174.584 51.665 174.917 51.9429C175.25 52.2208 175.438 52.5978 175.438 52.9908C175.438 53.3838 175.25 53.7607 174.917 54.0386C174.584 54.3165 174.132 54.4726 173.66 54.4726Z" fill="#3F3D56"/>
<path d="M123.249 40.4767C123.268 40.9231 123.405 41.3604 123.65 41.7579C123.894 42.1554 124.24 42.5034 124.663 42.7773C125.086 43.0513 125.576 43.2445 126.098 43.3435C126.621 43.4424 127.163 43.4447 127.686 43.3501L134.464 52.621L137.348 47.5171L130.47 39.4958C130.221 38.773 129.663 38.1514 128.901 37.7489C128.139 37.3463 127.227 37.1908 126.337 37.3117C125.447 37.4326 124.641 37.8216 124.072 38.4049C123.502 38.9883 123.21 39.7254 123.249 40.4767Z" fill="#FFB6B6"/>
<path d="M174.107 67.0466L150.752 56.4828L143.385 50.7195C143.385 50.7195 140.182 50.0045 141.361 49.1362C142.54 48.2679 139.181 47.4305 139.181 47.4305L135.226 44.3365L129.606 47.6521L131.233 49.7544C131.233 49.7544 131.121 53.2345 133.407 52.565C135.693 51.8954 135.122 54.7817 135.122 54.7817L148.769 72.4213L174.107 67.0466Z" fill="#3F3D56"/>
<path d="M105.164 57.0939C117.763 57.0939 127.977 48.5771 127.977 38.0712C127.977 27.5652 117.763 19.0485 105.164 19.0485C92.565 19.0485 82.3514 27.5652 82.3514 38.0712C82.3514 48.5771 92.565 57.0939 105.164 57.0939Z" fill="#E18141"/>
<path d="M174.179 205.604H169.436L167.179 190.348H174.179V205.604Z" fill="#FFB6B6"/>
<path d="M176.683 212.457H173.281L172.674 209.779L171.119 212.457H162.097C161.665 212.457 161.244 212.342 160.895 212.128C160.547 211.915 160.29 211.614 160.161 211.269C160.032 210.925 160.039 210.556 160.18 210.215C160.321 209.874 160.589 209.579 160.945 209.374L168.149 205.225V202.518L175.728 202.895L176.683 212.457Z" fill="#2F2E41"/>
<path d="M136.242 205.604H131.499L129.241 190.348H136.242V205.604Z" fill="#FFB6B6"/>
<path d="M138.746 212.457H135.344L134.737 209.779L133.182 212.457H124.16C123.727 212.457 123.306 212.342 122.958 212.128C122.609 211.915 122.352 211.614 122.223 211.269C122.095 210.925 122.101 210.556 122.242 210.215C122.383 209.874 122.651 209.579 123.007 209.374L130.212 205.225V202.518L137.79 202.895L138.746 212.457Z" fill="#2F2E41"/>
<path d="M169.146 90.2227H145.205V112.95H169.146V90.2227Z" fill="#FFB6B6"/>
<path d="M145.758 101.433L141.706 105.426L134.708 117.711L117.074 152.696L113.345 160.095L116.357 173.175C116.357 173.175 116.844 182.39 116.844 183.898C116.844 186.969 119.925 188.671 119.925 188.671L122.185 198.487L144.1 197.719C144.1 197.719 143.336 186.899 138.746 184.17C134.156 181.441 132.046 167.217 132.046 167.217L129.551 160.907L153.861 136.878L154.018 145.277L154.094 149.343C154.094 149.343 150.534 175.785 154.684 180.916C158.833 186.048 154.768 185.444 154.768 185.444L154.966 196.03L180.933 196.183L175.204 165.707C175.204 165.707 172.295 163.792 173.852 161.867C175.408 159.942 172.343 157.584 172.343 157.584L173.718 133.792C173.718 133.792 172.196 129.683 173.986 129.148C175.776 128.614 174.221 125.08 174.221 125.08L174.487 120.475L169.146 106.194L145.758 101.433Z" fill="#2F2E41"/>
<path d="M169.515 90.2226L172.093 83.7729L173.935 81.6229L174.671 75.4803C174.671 58.8951 170.235 61.6569 170.235 61.6569L167.673 55.8238L155.887 55.5167L148.336 61.5057L142.075 63.3485L139.623 73.9723L144.1 85.3085L145.205 91.4512C143.097 94.696 143.276 93.1612 145.021 95.5975L165.831 100.358C173.198 102.508 173.198 96.9796 171.721 95.5975C170.244 94.2154 169.515 90.2226 169.515 90.2226Z" fill="#3F3D56"/>
<path d="M160.257 53.4549C166.292 53.4549 171.184 49.3757 171.184 44.3438C171.184 39.3119 166.292 35.2327 160.257 35.2327C154.223 35.2327 149.331 39.3119 149.331 44.3438C149.331 49.3757 154.223 53.4549 160.257 53.4549Z" fill="#FFB6B6"/>
<path d="M174.844 56.5056C174.947 56.6504 175.01 56.8128 175.027 56.9805C175.044 57.1483 175.016 57.3171 174.944 57.4745C174.872 57.6318 174.759 57.7736 174.612 57.8893C174.465 58.005 174.289 58.0916 174.097 58.1426C172.631 58.548 171.728 59.7305 170.675 60.6765C169.625 61.6194 167.935 62.4026 166.594 61.7606C165.257 61.1218 165.165 59.4909 164.045 58.6064C162.955 57.7464 161.143 57.8508 159.861 58.505L159.823 58.5247C159.601 58.645 159.343 58.7085 159.079 58.7075C158.814 58.7065 158.556 58.641 158.337 58.5191C158.117 58.3971 157.944 58.2241 157.841 58.0214C157.738 57.8186 157.708 57.5951 157.756 57.3785C158.205 55.3868 158.654 53.3954 159.102 51.4041C157.923 53.7722 156.212 55.9303 154.06 57.7618C153.467 58.3322 152.716 58.7729 151.872 59.0456C151.106 59.2483 150.362 58.588 149.618 58.7077C151.467 57.3594 157.684 48.7167 156.572 42.9395C155.264 43.0624 153.957 43.1853 152.649 43.3081C152.508 42.7921 152.205 42.3164 151.772 41.9291C151.825 42.4313 151.749 42.9371 151.548 43.4125C151.003 43.4647 150.454 43.5139 149.909 43.5661C149.15 43.6367 148.325 43.6982 147.673 43.3665C146.586 42.8136 146.553 41.5052 146.863 40.4733C147.769 37.4726 150.516 34.9633 153.879 33.6488C157.242 32.3373 158.237 35.2582 161.78 34.3245C168.778 32.4817 174.141 35.6329 176.03 41.4807C177.618 46.3856 176.465 51.5915 174.844 56.5056Z" fill="#2F2E41"/>
<path d="M205.094 212.655H191.715L191.657 212.568C191.486 212.31 191.321 212.036 191.166 211.754C189.788 209.294 189.206 206.48 188.692 203.997L188.305 202.126C188.258 201.899 188.293 201.666 188.406 201.456C188.519 201.247 188.705 201.07 188.939 200.948C189.173 200.827 189.445 200.767 189.721 200.775C189.997 200.784 190.263 200.86 190.486 200.996C192.519 202.229 194.553 203.462 196.588 204.693C197.359 205.161 198.239 205.702 199.081 206.286C199.163 205.957 199.248 205.627 199.333 205.301C199.391 205.076 199.529 204.871 199.728 204.712C199.928 204.553 200.179 204.447 200.451 204.408C200.723 204.369 201.003 204.398 201.255 204.492C201.507 204.586 201.719 204.741 201.865 204.936L203.43 207.033C204.572 208.565 205.58 210.074 205.374 211.702C205.375 211.722 205.373 211.741 205.369 211.761C205.328 212.028 205.252 212.291 205.142 212.544L205.094 212.655Z" fill="#3F3D56"/>
<path d="M218.522 212.897L91.3854 213C91.2586 212.999 91.1371 212.957 91.0476 212.882C90.9581 212.807 90.9078 212.706 90.9078 212.6C90.9078 212.494 90.9581 212.392 91.0476 212.317C91.1371 212.242 91.2586 212.2 91.3854 212.199L218.522 212.096C218.649 212.097 218.771 212.139 218.86 212.214C218.95 212.289 219 212.391 219 212.496C219 212.602 218.95 212.704 218.86 212.779C218.771 212.854 218.649 212.896 218.522 212.897Z" fill="#3F3D56"/>
<path d="M103.09 63.6744L89.1059 53.8266C88.6279 53.4892 88.3299 53.0075 88.2773 52.4872C88.2247 51.9668 88.4218 51.4503 88.8253 51.051L91.3992 48.5095C91.8037 48.1109 92.3814 47.8624 93.0055 47.8185C93.6295 47.7746 94.2489 47.939 94.7278 48.2755L108.712 58.1233C109.19 58.4606 109.488 58.9423 109.541 59.4627C109.594 59.983 109.397 60.4996 108.993 60.8989L106.419 63.4404C106.015 63.839 105.437 64.0875 104.813 64.1314C104.189 64.1752 103.569 64.0109 103.09 63.6744Z" fill="#3F3D56"/>
<path d="M89.8397 51.2559C89.6223 51.4711 89.5161 51.7494 89.5444 52.0298C89.5728 52.3102 89.7334 52.5698 89.9909 52.7516L103.975 62.5994C104.234 62.7807 104.567 62.8693 104.904 62.8456C105.24 62.822 105.551 62.6881 105.769 62.4733L108.343 59.9319C108.561 59.7166 108.667 59.4383 108.638 59.1579C108.61 58.8775 108.449 58.6179 108.192 58.4361L94.2074 48.5883C93.9493 48.407 93.6155 48.3184 93.2792 48.3421C92.943 48.3657 92.6316 48.4996 92.4136 48.7144L89.8397 51.2559Z" fill="white"/>
<path d="M98.0495 55.0841C98.001 55.1407 97.9373 55.1872 97.8635 55.2197C97.7898 55.2522 97.7079 55.27 97.6244 55.2716L95.4272 55.3137C95.3566 55.315 95.2864 55.3048 95.2205 55.2835C95.1547 55.2622 95.0945 55.2303 95.0435 55.1897C94.9924 55.149 94.9515 55.1003 94.923 55.0465C94.8944 54.9926 94.8789 54.9346 94.8773 54.8757C94.8757 54.8169 94.888 54.7583 94.9135 54.7034C94.939 54.6485 94.9773 54.5984 95.026 54.5558C95.0748 54.5132 95.1332 54.479 95.1978 54.4553C95.2624 54.4315 95.3319 54.4186 95.4025 54.4172L96.84 54.3896L95.4243 51.2749C95.3742 51.1638 95.379 51.0406 95.4376 50.9324C95.4962 50.8242 95.6039 50.7398 95.737 50.6977C95.8702 50.6557 96.0179 50.6593 96.1478 50.708C96.2777 50.7566 96.3791 50.8462 96.4299 50.9571L98.1149 54.6645C98.1454 54.7315 98.1561 54.8037 98.1463 54.8749C98.1364 54.9462 98.1061 55.0144 98.0581 55.0739L98.0495 55.0841Z" fill="#F9A826"/>
<path d="M98.3314 55.8669C98.8614 55.9318 99.3678 56.0928 99.8151 56.3386C100.262 56.5844 100.64 56.909 100.92 57.2895C101.201 57.67 101.378 58.0971 101.439 58.5409C101.5 58.9846 101.444 59.4341 101.274 59.8578L111.589 66.4836L105.191 68.3195L96.3768 61.7461C95.5422 61.4612 94.8619 60.9309 94.4648 60.2557C94.0678 59.5805 93.9815 58.8073 94.2225 58.0826C94.4634 57.3579 95.0148 56.7321 95.7721 56.3237C96.5293 55.9154 97.44 55.7528 98.3314 55.8669Z" fill="#FFB6B6"/>
<path d="M152.035 59.143L125.624 72.6834C125.624 72.6834 114.976 69.398 117.057 67.8771C119.138 66.3562 112.513 65.328 112.513 65.328L105.195 61.2223L100.948 65.3379C100.948 65.3379 101.722 72.0228 103.038 70.8653C104.355 69.7077 106.323 72.8697 106.323 72.8697C106.323 72.8697 106.905 76.4004 110.653 75.5119C114.4 74.6234 124.457 83.9366 124.457 83.9366L156.96 73.8281L152.035 59.143Z" fill="#3F3D56"/>
<path d="M104.362 45.702C104.056 45.702 103.754 45.6425 103.48 45.5283C103.206 45.4141 102.968 45.2483 102.784 45.044L97.9474 39.6661C97.792 39.4933 97.6789 39.2967 97.6147 39.0875C97.5504 38.8783 97.5362 38.6606 97.5728 38.4468C97.6094 38.233 97.6962 38.0273 97.8282 37.8415C97.9601 37.6557 98.1347 37.4933 98.3419 37.3638C98.7603 37.1021 99.2863 36.9897 99.8041 37.0514C100.06 37.082 100.307 37.1543 100.53 37.2644C100.753 37.3744 100.948 37.52 101.103 37.6927L104.267 41.2108L112.395 31.045C112.685 30.682 113.136 30.4301 113.649 30.3446C114.162 30.259 114.695 30.3469 115.13 30.5888C115.565 30.8308 115.867 31.207 115.97 31.6347C116.073 32.0624 115.967 32.5065 115.677 32.8695L106.003 44.9696C105.828 45.1884 105.593 45.3691 105.317 45.4965C105.041 45.6238 104.732 45.6941 104.417 45.7015C104.399 45.7017 104.38 45.702 104.362 45.702Z" fill="white"/>
</g>
<defs>
<clipPath id="clip0_12_3">
<rect width="219" height="213" rx="50" fill="white"/>
</clipPath>
</defs>
</svg>
