<svg width="543" height="634" viewBox="0 0 543 634" fill="none" xmlns="http://www.w3.org/2000/svg">
<g clip-path="url(#clip0_12_3)">
<rect width="543" height="634" rx="50" fill="#080808"/>
<path d="M525.45 233.676H17.0851C12.5554 233.67 8.21278 231.867 5.00984 228.66C1.8069 225.454 0.00519214 221.107 -3.8147e-05 216.573V17.1028C0.00519214 12.5684 1.8069 8.22131 5.00984 5.01506C8.21278 1.8088 12.5554 0.00523569 17.0851 0H525.45C529.979 0.00523569 534.322 1.8088 537.525 5.01506C540.728 8.22131 542.53 12.5684 542.535 17.1028V216.573C542.53 221.107 540.728 225.454 537.525 228.66C534.322 231.867 529.979 233.67 525.45 233.676Z" fill="#141313"/>
<path d="M406.888 222.768H97.7802C74.7459 222.742 52.6625 213.57 36.3748 197.266C20.0871 180.961 10.9253 158.855 10.8993 135.797V97.888C10.9252 74.8299 20.087 52.7236 36.3747 36.4189C52.6624 20.1143 74.7458 10.9428 97.7802 10.9167H444.758C467.792 10.9428 489.875 20.1143 506.163 36.4189C522.451 52.7236 531.612 74.8299 531.638 97.888C531.601 130.997 518.446 162.739 495.058 186.15C471.671 209.561 439.962 222.73 406.888 222.768Z" fill="#0F0E0E"/>
<path d="M327.15 68.0184H122.827C121.658 68.0184 120.537 67.5537 119.711 66.7265C118.885 65.8993 118.42 64.7774 118.42 63.6076C118.42 62.4378 118.885 61.3159 119.711 60.4887C120.537 59.6615 121.658 59.1968 122.827 59.1968H327.15C328.319 59.1968 329.44 59.6615 330.266 60.4887C331.093 61.3159 331.557 62.4378 331.557 63.6076C331.557 64.7774 331.093 65.8993 330.266 66.7265C329.44 67.5537 328.319 68.0184 327.15 68.0184Z" fill="#3F3D56"/>
<path d="M430.583 115.079H122.827C121.658 115.079 120.537 114.614 119.711 113.787C118.885 112.96 118.42 111.838 118.42 110.668C118.42 109.498 118.885 108.376 119.711 107.549C120.537 106.722 121.658 106.257 122.827 106.257H430.583C431.751 106.257 432.872 106.722 433.698 107.549C434.525 108.376 434.989 109.498 434.989 110.668C434.989 111.838 434.525 112.96 433.698 113.787C432.872 114.614 431.751 115.079 430.583 115.079Z" fill="#3F3D56"/>
<path d="M430.583 162.139H122.827C121.658 162.139 120.537 161.674 119.711 160.847C118.885 160.02 118.42 158.898 118.42 157.728C118.42 156.559 118.885 155.437 119.711 154.609C120.537 153.782 121.658 153.318 122.827 153.318H430.583C431.751 153.318 432.872 153.782 433.698 154.609C434.525 155.437 434.989 156.559 434.989 157.728C434.989 158.898 434.525 160.02 433.698 160.847C432.872 161.674 431.751 162.139 430.583 162.139Z" fill="#E6E6E6"/>
<path d="M430.583 162.139H122.827C121.658 162.139 120.537 161.674 119.711 160.847C118.885 160.02 118.42 158.898 118.42 157.728C118.42 156.559 118.885 155.437 119.711 154.609C120.537 153.782 121.658 153.318 122.827 153.318H430.583C431.751 153.318 432.872 153.782 433.698 154.609C434.525 155.437 434.989 156.559 434.989 157.728C434.989 158.898 434.525 160.02 433.698 160.847C432.872 161.674 431.751 162.139 430.583 162.139Z" fill="#3F3D56"/>
<path d="M305.589 120.48C305.638 121.809 305.978 123.11 306.583 124.293C307.189 125.477 308.047 126.512 309.096 127.328C310.145 128.143 311.36 128.718 312.655 129.013C313.95 129.307 315.294 129.314 316.592 129.033L333.396 156.628L340.547 141.436L323.494 117.56C322.877 115.409 321.493 113.559 319.604 112.361C317.715 111.162 315.453 110.699 313.246 111.059C311.039 111.419 309.041 112.577 307.629 114.313C306.218 116.05 305.492 118.244 305.589 120.48Z" fill="#FFB6B6"/>
<path d="M431.69 199.566L373.781 168.123L355.516 150.968C355.516 150.968 347.575 148.84 350.498 146.255C353.42 143.671 345.092 141.178 345.092 141.178L335.286 131.969L321.353 141.838L325.385 148.095C325.385 148.095 325.108 158.454 330.777 156.461C336.445 154.468 335.029 163.059 335.029 163.059L368.865 215.564L431.69 199.566Z" fill="#3F3D56"/>
<path d="M260.75 169.942C291.989 169.942 317.313 144.591 317.313 113.32C317.313 82.0487 291.989 56.6983 260.75 56.6983C229.511 56.6983 204.186 82.0487 204.186 113.32C204.186 144.591 229.511 169.942 260.75 169.942Z" fill="#E18141"/>
<path d="M431.87 611.986H420.108L414.512 566.575H431.87V611.986Z" fill="#FFB6B6"/>
<path d="M438.077 632.384H429.643L428.137 624.413L424.282 632.384H401.912C400.84 632.384 399.796 632.041 398.932 631.405C398.068 630.769 397.43 629.873 397.111 628.849C396.792 627.824 396.809 626.724 397.158 625.709C397.508 624.695 398.172 623.818 399.055 623.208L416.918 610.858V602.8L435.708 603.922L438.077 632.384Z" fill="#2F2E41"/>
<path d="M337.806 611.986H326.044L320.448 566.575H337.806V611.986Z" fill="#FFB6B6"/>
<path d="M344.013 632.384H335.579L334.073 624.413L330.218 632.384H307.848C306.776 632.384 305.731 632.041 304.868 631.405C304.004 630.769 303.366 629.873 303.047 628.849C302.728 627.824 302.744 626.724 303.094 625.709C303.444 624.695 304.108 623.818 304.991 623.208L322.854 610.858V602.8L341.644 603.922L344.013 632.384Z" fill="#2F2E41"/>
<path d="M419.39 268.55H360.03V336.2H419.39V268.55Z" fill="#FFB6B6"/>
<path d="M361.399 301.918L351.354 313.802L334.002 350.37L290.28 454.505L281.034 476.528L288.501 515.46C288.501 515.46 289.71 542.888 289.71 547.377C289.71 556.519 297.348 561.585 297.348 561.585L302.952 590.801L357.29 588.516C357.29 588.516 355.394 556.311 344.013 548.188C332.632 540.064 327.401 497.727 327.401 497.727L321.217 478.943L381.491 407.42L381.88 432.421L382.068 444.522C382.068 444.522 373.241 523.228 383.53 538.502C393.82 553.777 383.74 551.98 383.74 551.98L384.23 583.488L448.614 583.945L434.41 493.232C434.41 493.232 427.198 487.531 431.057 481.801C434.915 476.071 427.317 469.053 427.317 469.053L430.725 398.236C430.725 398.236 426.951 386.003 431.39 384.414C435.829 382.824 431.973 372.305 431.973 372.305L432.632 358.598L419.39 316.088L361.399 301.918Z" fill="#2F2E41"/>
<path d="M420.304 268.55L426.696 249.352L431.263 242.953L433.089 224.669C433.089 175.303 422.089 183.523 422.089 183.523L415.737 166.161L386.514 165.247L367.792 183.073L352.267 188.559L346.187 220.181L357.29 253.923L360.03 272.207C354.803 281.865 355.245 277.297 359.573 284.548L411.171 298.718C429.436 305.118 429.436 288.662 425.774 284.548C422.111 280.435 420.304 268.55 420.304 268.55Z" fill="#3F3D56"/>
<path d="M397.35 159.11C412.313 159.11 424.442 146.968 424.442 131.99C424.442 117.013 412.313 104.871 397.35 104.871C382.388 104.871 370.259 117.013 370.259 131.99C370.259 146.968 382.388 159.11 397.35 159.11Z" fill="#FFB6B6"/>
<path d="M433.518 168.19C433.773 168.622 433.928 169.105 433.971 169.604C434.014 170.103 433.943 170.606 433.765 171.074C433.587 171.543 433.306 171.965 432.942 172.309C432.578 172.653 432.141 172.911 431.664 173.063C428.03 174.27 425.792 177.789 423.18 180.605C420.578 183.412 416.386 185.743 413.062 183.832C409.746 181.931 409.518 177.076 406.742 174.443C404.039 171.884 399.546 172.195 396.367 174.142L396.272 174.2C395.724 174.558 395.082 174.748 394.428 174.745C393.773 174.742 393.133 174.547 392.588 174.184C392.042 173.821 391.615 173.305 391.359 172.702C391.103 172.099 391.03 171.433 391.147 170.789C392.261 164.86 393.374 158.933 394.486 153.006C391.563 160.055 387.319 166.478 381.984 171.929C380.514 173.627 378.652 174.939 376.559 175.751C374.66 176.354 372.815 174.389 370.97 174.745C375.555 170.732 390.97 145.007 388.212 127.811C384.97 128.176 381.728 128.542 378.486 128.908C378.135 127.372 377.385 125.956 376.313 124.803C376.444 126.298 376.254 127.803 375.756 129.219C374.404 129.374 373.043 129.52 371.692 129.676C369.81 129.886 367.765 130.069 366.148 129.081C363.454 127.436 363.372 123.541 364.139 120.47C366.386 111.538 373.198 104.069 381.536 100.157C389.874 96.2529 392.34 104.947 401.125 102.168C418.477 96.6827 431.774 106.062 436.459 123.468C440.395 138.068 437.536 153.563 433.518 168.19Z" fill="#2F2E41"/>
<path d="M508.52 632.974H475.347L475.204 632.715C474.78 631.945 474.371 631.129 473.988 630.291C470.571 622.968 469.127 614.593 467.852 607.203L466.893 601.633C466.777 600.959 466.864 600.265 467.144 599.64C467.424 599.016 467.884 598.489 468.465 598.128C469.046 597.767 469.721 597.587 470.404 597.612C471.088 597.637 471.748 597.866 472.301 598.269C477.342 601.941 482.386 605.61 487.431 609.275C489.341 610.666 491.523 612.277 493.612 614.017C493.814 613.037 494.025 612.054 494.236 611.085C494.381 610.415 494.723 609.805 495.217 609.331C495.711 608.857 496.335 608.542 497.009 608.425C497.684 608.308 498.377 608.395 499.002 608.676C499.626 608.956 500.153 609.416 500.514 609.998L504.395 616.24C507.226 620.799 509.725 625.291 509.216 630.136C509.218 630.195 509.214 630.254 509.202 630.312C509.101 631.107 508.912 631.89 508.639 632.644L508.52 632.974Z" fill="#3F3D56"/>
<path d="M541.816 633.692L226.586 634C226.271 633.998 225.97 633.872 225.748 633.649C225.526 633.426 225.402 633.123 225.402 632.808C225.402 632.494 225.526 632.191 225.748 631.968C225.97 631.745 226.271 631.619 226.586 631.617L541.816 631.31C542.131 631.311 542.432 631.437 542.654 631.661C542.876 631.884 543 632.186 543 632.501C543 632.816 542.876 633.118 542.654 633.341C542.432 633.565 542.131 633.691 541.816 633.692Z" fill="#3F3D56"/>
<path d="M255.608 189.528L220.934 160.216C219.749 159.212 219.01 157.778 218.879 156.229C218.749 154.681 219.238 153.143 220.238 151.955L226.62 144.39C227.623 143.203 229.055 142.464 230.603 142.333C232.15 142.202 233.686 142.692 234.873 143.693L269.547 173.005C270.732 174.01 271.471 175.443 271.602 176.992C271.732 178.541 271.243 180.079 270.243 181.267L263.861 188.832C262.858 190.018 261.426 190.758 259.878 190.889C258.331 191.019 256.795 190.53 255.608 189.528Z" fill="#3F3D56"/>
<path d="M222.753 152.564C222.214 153.205 221.951 154.033 222.021 154.868C222.091 155.703 222.49 156.475 223.128 157.017L257.802 186.329C258.442 186.869 259.27 187.132 260.104 187.062C260.937 186.991 261.709 186.593 262.25 185.953L268.632 178.389C269.171 177.748 269.434 176.92 269.364 176.085C269.293 175.25 268.895 174.478 268.257 173.937L233.583 144.624C232.943 144.085 232.115 143.821 231.281 143.891C230.448 143.962 229.676 144.36 229.135 145L222.753 152.564Z" fill="white"/>
<path d="M243.109 163.959C242.989 164.128 242.831 164.266 242.648 164.363C242.465 164.46 242.262 164.513 242.055 164.517L236.607 164.643C236.432 164.647 236.258 164.616 236.095 164.553C235.932 164.489 235.782 164.395 235.656 164.273C235.529 164.152 235.428 164.008 235.357 163.847C235.286 163.687 235.248 163.514 235.244 163.339C235.24 163.164 235.27 162.99 235.333 162.826C235.397 162.663 235.492 162.513 235.612 162.387C235.733 162.26 235.878 162.158 236.038 162.088C236.198 162.017 236.371 161.978 236.546 161.974L240.11 161.892L236.6 152.621C236.476 152.29 236.488 151.924 236.633 151.602C236.778 151.28 237.045 151.028 237.375 150.903C237.705 150.778 238.072 150.789 238.394 150.934C238.716 151.078 238.967 151.345 239.093 151.675L243.271 162.71C243.347 162.91 243.373 163.125 243.349 163.337C243.324 163.549 243.249 163.752 243.13 163.929L243.109 163.959Z" fill="#F9A826"/>
<path d="M243.808 166.289C245.122 166.483 246.378 166.962 247.487 167.693C248.596 168.425 249.531 169.391 250.227 170.524C250.922 171.656 251.361 172.928 251.513 174.248C251.665 175.569 251.525 176.907 251.105 178.168L276.681 197.89L260.817 203.355L238.962 183.789C236.892 182.941 235.205 181.362 234.221 179.353C233.236 177.343 233.023 175.041 233.62 172.884C234.217 170.727 235.585 168.865 237.462 167.649C239.34 166.434 241.598 165.95 243.808 166.289Z" fill="#FFB6B6"/>
<path d="M376.963 176.041L311.48 216.344C311.48 216.344 285.078 206.565 290.238 202.038C295.397 197.511 278.971 194.451 278.971 194.451L260.825 182.23L250.296 194.48C250.296 194.48 252.214 214.378 255.479 210.932C258.743 207.487 263.623 216.899 263.623 216.899C263.623 216.899 265.065 227.408 274.358 224.763C283.651 222.118 308.586 249.839 308.586 249.839L389.176 219.751L376.963 176.041Z" fill="#3F3D56"/>
<path d="M258.76 136.033C258.001 136.033 257.253 135.856 256.574 135.516C255.895 135.176 255.304 134.683 254.849 134.075L242.856 118.067C242.471 117.553 242.19 116.968 242.031 116.345C241.872 115.722 241.836 115.074 241.927 114.438C242.018 113.802 242.233 113.189 242.56 112.636C242.887 112.083 243.32 111.6 243.834 111.214C244.871 110.435 246.176 110.101 247.459 110.285C248.095 110.376 248.707 110.591 249.259 110.918C249.812 111.246 250.294 111.679 250.68 112.194L258.526 122.665L278.678 92.4062C279.398 91.326 280.516 90.5761 281.788 90.3215C283.06 90.0668 284.38 90.3284 285.46 91.0485C286.539 91.7687 287.288 92.8885 287.542 94.1615C287.796 95.4346 287.535 96.7566 286.816 97.8369L262.83 133.853C262.396 134.505 261.812 135.042 261.128 135.421C260.444 135.8 259.678 136.01 258.897 136.032C258.851 136.032 258.806 136.033 258.76 136.033Z" fill="white"/>
</g>
<defs>
<clipPath id="clip0_12_3">
<rect width="543" height="634" rx="50" fill="white"/>
</clipPath>
</defs>
</svg>
